<svg height="40" viewBox="0 0 128 128" width="40" xmlns="http://www.w3.org/2000/svg"><path d="m119.338 16.219h-57.978a5.39 5.39 0 0 1 -4.432-2.319l-2.578-3.728a7.4 7.4 0 0 0 -6.077-3.184h-35.611a5.007 5.007 0 0 0 -5 5v93.7a5.006 5.006 0 0 0 5 5h85.376l9.86 11.518a8.054 8.054 0 0 0 5.787 2.8c.1 0 .206.006.309.006a8.028 8.028 0 0 0 5.223-14.125l-.232-.2h.353a5.006 5.006 0 0 0 5-5v-84.468a5.006 5.006 0 0 0 -5-5z" fill="#e6e7e8"/><path d="m4.662 26v75.686a4 4 0 0 0 4 4h106.675a4 4 0 0 0 4-4v-75.686z" fill="#d4fbff"/><path d="m115.337 102.687h-106.675a4 4 0 0 1 -4-4v3a4 4 0 0 0 4 4h106.675a4 4 0 0 0 4-4v-3a4 4 0 0 1 -4 4z" fill="#fff"/><path d="m52.106 10.466-2.579-3.724a6.388 6.388 0 0 0 -5.254-2.753h-35.611a4 4 0 0 0 -4 4v18.011h114.675v-8.781a4 4 0 0 0 -4-4h-57.977a6.387 6.387 0 0 1 -5.254-2.753z" fill="#6dc9f7"/><path d="m40.281 12.16a3.257 3.257 0 1 0 3.257 3.257 3.257 3.257 0 0 0 -3.257-3.257z" fill="#fff"/><path d="m28.45 12.16a3.257 3.257 0 1 0 3.257 3.257 3.257 3.257 0 0 0 -3.257-3.257z" fill="#d4fbff"/><path d="m16.618 12.16a3.257 3.257 0 1 0 3.257 3.257 3.257 3.257 0 0 0 -3.257-3.257z" fill="#fa759e"/><path d="m114.966 117.953a7.028 7.028 0 0 1 -10.308-.4l-18.532-21.645 6.794-6.794 21.647 18.532a7.027 7.027 0 0 1 .399 10.307z" fill="#fa759e"/><path d="m93.7 82.723-1.016-1.013a3.951 3.951 0 0 0 -2.023-1.083 32.335 32.335 0 0 1 -13.021 13.021 3.952 3.952 0 0 0 1.082 2.023l1.013 1.013a3.97 3.97 0 0 0 5.615 0l8.35-8.346a3.971 3.971 0 0 0 0-5.615z" fill="#6dc9f7"/><circle cx="62.245" cy="65.233" fill="#ffd7e5" r="32.316"/><circle cx="62.245" cy="65.233" fill="#d4fbff" r="26"/><path d="m67.8 57.139c-.382 2.609-2.83 3.254-5.8 3.254s-5.418-.645-5.8-3.254a4.838 4.838 0 0 0 -2.847 4.4v11.097a8.647 8.647 0 0 0 8.647 8.648 8.647 8.647 0 0 0 8.647-8.648v-11.092a4.84 4.84 0 0 0 -2.847-4.405z" fill="#0089ef"/><path d="m67.858 56.4c0 3.235-2.623 3.993-5.858 3.993s-5.858-.758-5.858-3.993a5.858 5.858 0 0 1 11.716 0z" fill="#6dc9f7"/><g fill="#3a2c60"><path d="m104.334 25h-9.334a1 1 0 0 0 0 2h9.334a1 1 0 0 0 0-2z"/><path d="m115.337 12.22h-57.977a5.393 5.393 0 0 1 -4.432-2.32l-2.579-3.728a7.391 7.391 0 0 0 -6.076-3.183h-35.61a5.006 5.006 0 0 0 -5 5v93.7a5.006 5.006 0 0 0 5 5h85.375l9.861 11.518a8.051 8.051 0 0 0 5.787 2.8c.1 0 .2.006.307.006a8.027 8.027 0 0 0 5.224-14.125l-.232-.2h.352a5.006 5.006 0 0 0 5-5v-84.468a5.006 5.006 0 0 0 -5-5zm.683 100.531a6.028 6.028 0 0 1 -10.6 4.153l-17.932-20.943 5.485-5.486 20.943 17.93a5.967 5.967 0 0 1 2.104 4.346zm-31.63-25.374a31.3 31.3 0 1 1 0-44.288 31.112 31.112 0 0 1 0 44.288zm1.41 1.414a33.24 33.24 0 0 0 5.324-6.959 2.856 2.856 0 0 1 .849.585l1.012 1.013a2.973 2.973 0 0 1 0 4.2l-8.345 8.346a3.043 3.043 0 0 1 -4.2 0l-1.01-1.012a2.853 2.853 0 0 1 -.581-.84 33.532 33.532 0 0 0 6.951-5.333zm29.533 15.9h-2.688l-18.254-15.634.012-.012a4.974 4.974 0 0 0 0-7.029l-1.012-1.016a4.732 4.732 0 0 0 -1.328-.923 33.253 33.253 0 1 0 -14.963 14.986 4.728 4.728 0 0 0 .917 1.315l1.012 1.013a4.971 4.971 0 0 0 7.03 0l.011-.012 6.257 7.308h-83.665a3 3 0 0 1 -3-3v-74.687h85a1 1 0 0 0 0-2h-85v-17.011a3 3 0 0 1 3-3h35.61a5.391 5.391 0 0 1 4.432 2.322l2.578 3.725a7.4 7.4 0 0 0 6.078 3.184h57.977a3 3 0 0 1 3 3v7.78h-9.671a1 1 0 0 0 0 2h9.671v74.687a3 3 0 0 1 -3 3z"/><path d="m81.337 46.141a27 27 0 1 0 7.909 19.092 27.03 27.03 0 0 0 -7.909-19.092zm-1.414 36.77a25 25 0 1 1 7.323-17.678 24.84 24.84 0 0 1 -7.323 17.678z"/><path d="m77.324 53.266a1 1 0 0 0 -1 1v3.974a3.138 3.138 0 0 1 -3.134 3.135h-1.556a5.825 5.825 0 0 0 -2.788-4.8c0-.061.012-.114.012-.177a6.81 6.81 0 0 0 -.769-3.141l.874-.937a2.159 2.159 0 0 0 .105-2.811l-1.7-2.121a1 1 0 1 0 -1.56 1.25l1.7 2.121a.149.149 0 0 1 -.008.2l-.6.649a6.837 6.837 0 0 0 -9.792 0l-.6-.649a.151.151 0 0 1 -.008-.2l1.7-2.121a1 1 0 1 0 -1.561-1.25l-1.7 2.121a2.165 2.165 0 0 0 .106 2.811l.875.937a6.813 6.813 0 0 0 -.769 3.141c0 .063.01.116.012.178a5.822 5.822 0 0 0 -2.788 4.8h-1.565a3.138 3.138 0 0 1 -3.134-3.135v-3.975a1 1 0 0 0 -2 0v3.974a5.14 5.14 0 0 0 5.134 5.135h1.543v2.534h-5.677a1 1 0 0 0 0 2h5.677v2.535h-1.543a5.14 5.14 0 0 0 -5.134 5.134v3.975a1 1 0 0 0 2 0v-3.975a3.138 3.138 0 0 1 3.134-3.134h1.543v.192a9.648 9.648 0 1 0 19.295 0v-.192h1.542a3.138 3.138 0 0 1 3.134 3.134v3.975a1 1 0 0 0 2 0v-3.975a5.14 5.14 0 0 0 -5.134-5.134h-1.542v-2.535h5.676a1 1 0 0 0 0-2h-5.676v-2.534h1.542a5.14 5.14 0 0 0 5.134-5.135v-3.974a1 1 0 0 0 -1-1zm-15.324-1.724a4.864 4.864 0 0 1 4.858 4.858c0 1.555-.589 2.993-4.858 2.993s-4.858-1.438-4.858-2.993a4.863 4.863 0 0 1 4.858-4.858zm-7.647 21.094v-11.092a3.805 3.805 0 0 1 1.273-2.838c1.074 2.18 3.687 2.594 5.374 2.667v18.837a7.652 7.652 0 0 1 -6.647-7.574zm15.295 0a7.653 7.653 0 0 1 -6.648 7.574v-18.837c1.687-.078 4.3-.487 5.374-2.667a3.8 3.8 0 0 1 1.274 2.838z"/><circle cx="64.589" cy="53.69" r="1.009"/><circle cx="59.411" cy="53.69" r="1.009"/></g></svg>