<svg height="40" viewBox="0 0 128 128" width="40" xmlns="http://www.w3.org/2000/svg"><path d="m118.837 13.151h-52.337v-5.901a1 1 0 0 0 -2 0v5.9h-52.337a5.006 5.006 0 0 0 -5 5v95.7a5.006 5.006 0 0 0 5 5h52.337v5.9a1 1 0 0 0 2 0v-5.9h52.337a5.006 5.006 0 0 0 5-5v-95.7a5.006 5.006 0 0 0 -5-4.999z" fill="#e6e7e8"/><path d="m5.163 26.163h114.674a0 0 0 0 1 0 0v83.687a4 4 0 0 1 -4 4h-106.674a4 4 0 0 1 -4-4v-83.687a0 0 0 0 1 0 0z" fill="#d4fbff"/><path d="m62.5 113.849h53.337a4 4 0 0 0 4-4v-83.686h-57.337z" fill="#ffd7e5"/><path d="m5.163 14.151v12.012h114.674v-12.012a4 4 0 0 0 -4-4h-106.674a4 4 0 0 0 -4 4z" fill="#0089ef"/><path d="m115.837 10.151h-53.337v16.012h57.337v-12.012a4 4 0 0 0 -4-4z" fill="#fa759e"/><path d="m115.837 10.151h-106.674a4 4 0 0 0 -4 4v3a4 4 0 0 1 4-4h106.674a4 4 0 0 1 4 4v-3a4 4 0 0 0 -4-4z" fill="#fff"/><circle cx="40.781" cy="18.579" fill="#fff" r="3.257"/><circle cx="28.95" cy="18.579" fill="#d4fbff" r="3.257"/><circle cx="17.118" cy="18.579" fill="#fa759e" r="3.257"/><path d="m43.321 60.5h-6.809a1 1 0 0 1 0-2h6.809a1 1 0 0 1 0 2z" fill="#fa759e"/><path d="m30.512 60.5h-16.833a1 1 0 0 1 0-2h16.833a1 1 0 0 1 0 2z" fill="#fa759e"/><path d="m43.321 81.5h-10.309a1 1 0 0 1 0-2h10.309a1 1 0 0 1 0 2z" fill="#fa759e"/><path d="m29.012 81.5h-15.333a1 1 0 0 1 0-2h15.333a1 1 0 0 1 0 2z" fill="#fa759e"/><path d="m43.321 102.5h-10.309a1 1 0 0 1 0-2h10.309a1 1 0 0 1 0 2z" fill="#fa759e"/><path d="m29.012 102.5h-15.333a1 1 0 0 1 0-2h15.333a1 1 0 0 1 0 2z" fill="#fa759e"/><path d="m108.437 89.056v-3.809a1.06 1.06 0 0 0 -1.06-1.06h-2.564a14.722 14.722 0 0 0 -2.161-5.209l1.815-1.815a1.061 1.061 0 0 0 0-1.5l-2.693-2.693a1.061 1.061 0 0 0 -1.5 0l-1.815 1.815a14.725 14.725 0 0 0 -5.208-2.161v-2.563a1.061 1.061 0 0 0 -1.061-1.061h-3.809a1.06 1.06 0 0 0 -1.06 1.061v2.563a14.722 14.722 0 0 0 -5.209 2.161l-1.812-1.815a1.061 1.061 0 0 0 -1.5 0l-2.7 2.693a1.061 1.061 0 0 0 0 1.5l1.815 1.815a14.722 14.722 0 0 0 -2.161 5.209h-2.559a1.06 1.06 0 0 0 -1.061 1.06v3.809a1.061 1.061 0 0 0 1.061 1.061h2.563a14.725 14.725 0 0 0 2.161 5.208l-1.819 1.815a1.061 1.061 0 0 0 0 1.5l2.693 2.693a1.059 1.059 0 0 0 1.5 0l1.815-1.815a14.722 14.722 0 0 0 5.209 2.161v2.564a1.06 1.06 0 0 0 1.06 1.06h3.813a1.061 1.061 0 0 0 1.061-1.06v-2.564a14.725 14.725 0 0 0 5.208-2.161l1.815 1.815a1.059 1.059 0 0 0 1.5 0l2.693-2.693a1.059 1.059 0 0 0 0-1.5l-1.815-1.815a14.725 14.725 0 0 0 2.161-5.208h2.564a1.061 1.061 0 0 0 1.06-1.061zm-18.151 6.774a8.678 8.678 0 1 1 8.678-8.678 8.678 8.678 0 0 1 -8.678 8.678z" fill="#fa759e"/><path d="m101.939 46.68c.008-.163.025-.324.025-.489a10.428 10.428 0 0 0 -20.407-3.029c-.223-.018-.445-.034-.672-.034a8.534 8.534 0 0 0 0 17.067h20.565a6.766 6.766 0 0 0 .489-13.515z" fill="#d4fbff"/><g fill="#3a2c60"><path d="m22.923 50.511a1.251 1.251 0 0 0 .924-.372 1.282 1.282 0 0 0 .372-.948 1.1 1.1 0 0 0 -.18-.612 1.132 1.132 0 0 0 -.516-.42l-7.848-3.144 7.848-3.144a1.062 1.062 0 0 0 .7-1.032 1.268 1.268 0 0 0 -.36-.936 1.236 1.236 0 0 0 -.912-.36 1.852 1.852 0 0 0 -.7.145l-8.472 3.456a1.965 1.965 0 0 0 -.936.743 1.991 1.991 0 0 0 -.336 1.128 1.97 1.97 0 0 0 .336 1.14 2.15 2.15 0 0 0 .936.756l8.472 3.456a1.817 1.817 0 0 0 .672.144z"/><path d="m32.5 51.459a2.179 2.179 0 0 0 0-2.952 1.931 1.931 0 0 0 -1.439-.588 1.962 1.962 0 0 0 -1.464.588 2.179 2.179 0 0 0 0 2.952 1.958 1.958 0 0 0 1.464.588 1.927 1.927 0 0 0 1.439-.588z"/><path d="m26.715 39.352a2.529 2.529 0 0 0 1.151-.385q1.106-.648 1.765-.96a3.307 3.307 0 0 1 1.428-.312 2.067 2.067 0 0 1 1.332.4 1.3 1.3 0 0 1 .492 1.068 2.1 2.1 0 0 1 -.3 1.116 9.654 9.654 0 0 1 -.947 1.236 10.24 10.24 0 0 0 -1.309 1.8 4.225 4.225 0 0 0 -.443 2.04 1.45 1.45 0 0 0 .3.96 1.02 1.02 0 0 0 .828.359 1.1 1.1 0 0 0 .731-.252 1.221 1.221 0 0 0 .4-.708 2.706 2.706 0 0 1 .576-1.26 14.3 14.3 0 0 1 1.367-1.4q.816-.79 1.3-1.332a5.347 5.347 0 0 0 .827-1.272 3.7 3.7 0 0 0 .349-1.62 3.488 3.488 0 0 0 -.66-2.075 4.406 4.406 0 0 0 -1.855-1.455 6.526 6.526 0 0 0 -2.677-.528 8.577 8.577 0 0 0 -2.771.468 8.009 8.009 0 0 0 -2.437 1.308 1.778 1.778 0 0 0 -.491.564 1.562 1.562 0 0 0 -.156.732 1.684 1.684 0 0 0 .347 1.068 1.049 1.049 0 0 0 .853.44z"/><path d="m38.319 48.579a1.1 1.1 0 0 0 -.18.612 1.282 1.282 0 0 0 .372.948 1.249 1.249 0 0 0 .924.372 1.808 1.808 0 0 0 .671-.144l8.473-3.456a2.15 2.15 0 0 0 .936-.756 1.97 1.97 0 0 0 .336-1.14 1.991 1.991 0 0 0 -.336-1.128 1.965 1.965 0 0 0 -.936-.743l-8.473-3.456a1.843 1.843 0 0 0 -.7-.145 1.236 1.236 0 0 0 -.912.36 1.268 1.268 0 0 0 -.36.936 1.062 1.062 0 0 0 .7 1.032l7.848 3.144-7.848 3.144a1.127 1.127 0 0 0 -.515.42z"/><path d="m119.837 83.75a1 1 0 0 0 -1 1v9.75a1 1 0 0 0 2 0v-9.75a1 1 0 0 0 -1-1z"/><path d="m115.837 9.151h-52.337v-5.901a1 1 0 0 0 -2 0v5.9h-52.337a5.006 5.006 0 0 0 -5 5v95.7a5.006 5.006 0 0 0 5 5h52.337v5.9a1 1 0 0 0 2 0v-5.9h52.337a5.006 5.006 0 0 0 5-5v-11.1a1 1 0 0 0 -2 0v11.1a3 3 0 0 1 -3 3h-52.337v-85.687h55.337v53.5a1 1 0 0 0 2 0v-66.512a5.006 5.006 0 0 0 -5-5zm-109.674 5a3 3 0 0 1 3-3h52.337v14.012h-55.337zm3 98.7a3 3 0 0 1 -3-3v-82.688h55.337v38.337h-9.489a1 1 0 1 0 0 2h9.489v5h-40.821a1 1 0 0 0 0 2h40.821v12h-19.489a1 1 0 1 0 0 2h19.489v5h-13.4a1 1 0 1 0 0 2h13.4v17.349zm54.337-87.688v-14.012h52.337a3 3 0 0 1 3 3v11.012z"/><path d="m45.845 65.5h-25.166a1 1 0 0 0 0 2h25.166a1 1 0 0 0 0-2z"/><path d="m20.679 88.5h15.166a1 1 0 0 0 0-2h-15.166a1 1 0 0 0 0 2z"/><path d="m43.012 93.5h-22.333a1 1 0 0 0 0 2h22.333a1 1 0 0 0 0-2z"/><path d="m107.376 91.117a2.063 2.063 0 0 0 2.061-2.061v-3.809a2.062 2.062 0 0 0 -2.061-2.06h-1.767a15.609 15.609 0 0 0 -1.687-4.064l1.252-1.253a2.062 2.062 0 0 0 0-2.914l-2.693-2.693a2.063 2.063 0 0 0 -2.914 0l-1.252 1.252a15.644 15.644 0 0 0 -4.065-1.687v-1.767a2.062 2.062 0 0 0 -2.06-2.061h-3.809a2.062 2.062 0 0 0 -2.06 2.061v1.767a15.659 15.659 0 0 0 -4.065 1.687l-1.256-1.252a2.063 2.063 0 0 0 -2.914 0l-2.686 2.693a2.059 2.059 0 0 0 0 2.914l1.252 1.252a15.65 15.65 0 0 0 -1.687 4.065h-1.77a2.063 2.063 0 0 0 -2.061 2.06v3.809a2.064 2.064 0 0 0 2.061 2.061h1.767a15.658 15.658 0 0 0 1.687 4.064l-1.249 1.252a2.059 2.059 0 0 0 0 2.914l2.693 2.694a2.064 2.064 0 0 0 2.914 0l1.252-1.252a15.691 15.691 0 0 0 4.065 1.686v1.768a2.062 2.062 0 0 0 2.06 2.06h3.806a2.062 2.062 0 0 0 2.06-2.06v-1.768a15.662 15.662 0 0 0 4.065-1.686l1.252 1.252a2.064 2.064 0 0 0 2.914 0l2.693-2.694a2.062 2.062 0 0 0 0-2.914l-1.252-1.252a15.624 15.624 0 0 0 1.687-4.064zm-3.543-1.2a13.676 13.676 0 0 1 -2.014 4.856 1 1 0 0 0 .126 1.259l1.815 1.9-2.779 2.693-1.815-1.814a1 1 0 0 0 -1.259-.127 13.7 13.7 0 0 1 -4.856 2.015 1 1 0 0 0 -.8.98l-.06 2.623-3.869-.06v-2.562a1 1 0 0 0 -.8-.98 13.7 13.7 0 0 1 -4.856-2.015 1 1 0 0 0 -1.259.127l-1.9 1.814-2.693-2.779 1.815-1.815a1 1 0 0 0 .126-1.259 13.676 13.676 0 0 1 -2.014-4.856 1 1 0 0 0 -.98-.8l-2.624-.061.061-3.869h2.563a1 1 0 0 0 .98-.8 13.676 13.676 0 0 1 2.014-4.856 1 1 0 0 0 -.126-1.259l-1.815-1.9 2.779-2.693 1.815 1.815a1 1 0 0 0 1.259.127 13.664 13.664 0 0 1 4.853-2.021 1 1 0 0 0 .8-.98l.061-2.62 3.869.061v2.563a1 1 0 0 0 .8.98 13.667 13.667 0 0 1 4.855 2.015 1 1 0 0 0 1.259-.127l1.9-1.815 2.693 2.779-1.815 1.815a1 1 0 0 0 -.126 1.259 13.691 13.691 0 0 1 2.014 4.856 1 1 0 0 0 .98.8l2.624.06v3.809l-.061.061h-2.563a1 1 0 0 0 -.977.801z"/><path d="m90.286 77.474a9.678 9.678 0 1 0 9.677 9.678 9.689 9.689 0 0 0 -9.677-9.678zm0 17.356a7.678 7.678 0 1 1 7.677-7.678 7.688 7.688 0 0 1 -7.677 7.678z"/><path d="m80.885 61.2h20.565a7.766 7.766 0 0 0 1.508-15.385 11.429 11.429 0 0 0 -22.105-3.682 9.534 9.534 0 0 0 .032 19.067zm0-17.067c.2 0 .4.016.595.031a.991.991 0 0 0 1.034-.707 9.428 9.428 0 0 1 18.45 2.739c0 .084-.006.167-.012.249l-.012.192a1 1 0 0 0 .927 1.046 5.766 5.766 0 0 1 -.417 11.517h-20.565a7.534 7.534 0 0 1 0-15.067z"/></g></svg>